<svg xmlns="http://www.w3.org/2000/svg" viewBox="0 0 980 320" width="100%" height="100%">
  <g fill="#ffffff">
    <!-- M Letterform -->
    <path d="M 100 110 C 75 110 60 128 60 155 L 60 200 C 60 235 80 255 105 255 C 130 255 145 235 145 205 L 145 175 L 190 245 C 200 260 218 260 228 245 L 320 100 L 270 65 L 200 170 L 155 100 C 140 110 120 110 100 110 Z" />
    
    <!-- P Letterform & Ribbon -->
    <path d="M 270 65 L 355 190 L 340 245 C 340 262 352 275 370 275 C 388 275 400 262 400 245 L 400 170 L 495 170 C 535 170 560 145 560 108 L 560 92 C 560 55 535 30 495 30 L 350 30 Z M 400 80 L 485 80 C 500 80 508 87 508 100 L 508 102 C 508 115 500 122 485 122 L 400 122 Z" />
    
    <!-- Partition line 1 on P ribbon -->
    <path d="M 310 30 L 265 95" stroke="#0b1329" stroke-width="8" stroke-linecap="round"/>
    <!-- Partition line 2 on P ribbon -->
    <path d="M 430 30 L 385 95" stroke="#0b1329" stroke-width="8" stroke-linecap="round"/>

    <!-- A Letterform Chevron -->
    <path d="M 700 30 C 675 30 655 48 640 70 L 525 245 L 605 245 L 700 102 L 795 245 L 875 245 L 760 70 C 745 48 725 30 700 30 Z M 700 135 L 655 205 L 745 205 Z" />
  </g>
</svg>
